<svg width="158" height="40" viewBox="0 0 158 40" fill="none" xmlns="http://www.w3.org/2000/svg">
<path d="M26.6933 36.4232C24.3464 37.4588 21.7506 38.0339 19.0205 38.0339C8.51576 38.0339 0 29.5197 0 19.017C0 8.51418 8.51576 0 19.0205 0C29.5252 0 38.041 8.51418 38.041 19.017C38.041 21.9948 37.3564 24.8127 36.136 27.3221L32.7199 24.1611C31.67 23.1897 30.3872 22.6276 29.068 22.4674C29.4548 21.3597 29.665 20.1693 29.665 18.9297C29.665 13.0038 24.8602 8.19998 18.9332 8.19998C13.0063 8.19998 8.20149 13.0038 8.20149 18.9297C8.20149 24.8556 13.0063 29.6595 18.9332 29.6595C19.902 29.6595 20.8408 29.5311 21.7336 29.2905C21.8155 30.9398 22.5178 32.5595 23.8257 33.7697L26.6933 36.4232Z" fill="white"/>
<path d="M26.4603 26.8972C28.0017 25.3723 30.4876 25.3855 32.0127 26.9266L42.7038 37.7299C39.621 40.7796 34.6492 40.7532 31.5989 37.6709L26.1402 32.1549C24.7755 30.776 24.7873 28.5521 26.1665 27.1877L26.4603 26.8972Z" fill="white"/>
<path d="M29.8395 16.1383C29.8395 19.4625 27.1441 22.1574 23.8192 22.1574C20.4943 22.1574 17.799 19.4625 17.799 16.1383C17.799 12.814 20.4943 10.1191 23.8192 10.1191C27.1441 10.1191 29.8395 12.814 29.8395 16.1383Z" fill="white"/>
<path d="M45.9912 27.4626C44.9935 27.4626 44.1075 27.2616 43.3332 26.8596C42.5738 26.4428 41.9781 25.877 41.5463 25.1624C41.1145 24.4329 40.8986 23.5992 40.8986 22.6612V16.3637H44.316V22.6166C44.316 22.9888 44.3755 23.3089 44.4947 23.5768C44.6287 23.8448 44.8223 24.0533 45.0754 24.2021C45.3285 24.351 45.6338 24.4255 45.9912 24.4255C46.4975 24.4255 46.8995 24.2691 47.1973 23.9565C47.4951 23.629 47.644 23.1823 47.644 22.6166V16.3637H51.0614V22.6389C51.0614 23.5917 50.8455 24.4329 50.4137 25.1624C49.9819 25.877 49.3862 26.4428 48.6268 26.8596C47.8674 27.2616 46.9888 27.4626 45.9912 27.4626Z" fill="white"/>
<path d="M58.5677 27.4626C57.3914 27.4626 56.3416 27.2244 55.4184 26.748C54.51 26.2567 53.7953 25.5793 53.2741 24.7158C52.7529 23.8523 52.4923 22.8771 52.4923 21.7903C52.4923 20.7035 52.7455 19.7358 53.2518 18.8872C53.7729 18.0237 54.4728 17.3463 55.3513 16.855C56.2299 16.3637 57.2201 16.118 58.322 16.118C59.3942 16.118 60.3397 16.3488 61.1587 16.8103C61.9777 17.2718 62.618 17.912 63.0796 18.7308C63.5561 19.5497 63.7943 20.4876 63.7943 21.5446C63.7943 21.7382 63.7795 21.9466 63.7497 22.1699C63.7348 22.3784 63.6976 22.624 63.638 22.9069L54.2792 22.9292V20.5844L62.1862 20.562L60.712 21.5446C60.6971 20.9194 60.6003 20.4057 60.4216 20.0038C60.2429 19.5869 59.9749 19.2742 59.6175 19.0658C59.275 18.8425 58.8506 18.7308 58.3444 18.7308C57.8083 18.7308 57.3392 18.8574 56.9372 19.1105C56.55 19.3487 56.2448 19.6911 56.0214 20.1377C55.813 20.5844 55.7087 21.1278 55.7087 21.768C55.7087 22.4081 55.8204 22.959 56.0438 23.4205C56.282 23.8672 56.6096 24.217 57.0265 24.4701C57.4584 24.7083 57.9647 24.8274 58.5454 24.8274C59.0815 24.8274 59.5654 24.7381 59.9972 24.5595C60.4291 24.3659 60.8088 24.083 61.1364 23.7108L63.0126 25.5867C62.4765 26.212 61.8288 26.681 61.0694 26.9936C60.3099 27.3063 59.4761 27.4626 58.5677 27.4626Z" fill="white"/>
<path d="M69.3974 27.4849C68.7571 27.4849 68.1242 27.403 67.4988 27.2393C66.8883 27.0755 66.315 26.8447 65.7789 26.547C65.2578 26.2343 64.811 25.877 64.4388 25.4751L66.382 23.5099C66.7394 23.8969 67.1638 24.2021 67.6552 24.4255C68.1466 24.6339 68.6826 24.7381 69.2633 24.7381C69.6654 24.7381 69.9707 24.6786 70.1791 24.5595C70.4025 24.4403 70.5142 24.2766 70.5142 24.0681C70.5142 23.8002 70.3801 23.5992 70.1121 23.4652C69.859 23.3163 69.5314 23.1898 69.1293 23.0855C68.7273 22.9664 68.3029 22.8399 67.8562 22.7059C67.4095 22.5719 66.9851 22.3858 66.583 22.1476C66.181 21.9094 65.8534 21.5819 65.6003 21.165C65.3471 20.7333 65.2205 20.1899 65.2205 19.5348C65.2205 18.8351 65.3992 18.2321 65.7566 17.7259C66.114 17.2048 66.6203 16.7954 67.2754 16.4977C67.9306 16.1999 68.6975 16.051 69.576 16.051C70.4993 16.051 71.348 16.2148 72.1224 16.5423C72.9116 16.855 73.5518 17.3239 74.0432 17.9492L72.1 19.9144C71.7575 19.5125 71.3704 19.2296 70.9385 19.0658C70.5216 18.902 70.1121 18.8202 69.7101 18.8202C69.3229 18.8202 69.0325 18.8797 68.839 18.9988C68.6454 19.103 68.5486 19.2594 68.5486 19.4678C68.5486 19.6911 68.6752 19.8698 68.9283 20.0038C69.1814 20.1377 69.509 20.2568 69.9111 20.3611C70.3131 20.4653 70.7375 20.5918 71.1842 20.7407C71.631 20.8896 72.0553 21.0906 72.4574 21.3437C72.8594 21.5968 73.187 21.9392 73.4402 22.3709C73.6933 22.7878 73.8199 23.3386 73.8199 24.0235C73.8199 25.0805 73.4178 25.9217 72.6137 26.547C71.8245 27.1723 70.7524 27.4849 69.3974 27.4849Z" fill="white"/>
<path d="M77.2151 27.2169V11.875H80.6325V27.2169H77.2151ZM74.7582 19.2668V16.3637H83.0895V19.2668H74.7582Z" fill="white"/>
<path d="M94.678 27.4849C94.0377 27.4849 93.4049 27.403 92.7795 27.2393C92.169 27.0755 91.5957 26.8447 91.0596 26.547C90.5384 26.2343 90.0917 25.877 89.7194 25.4751L91.6627 23.5099C92.0201 23.8969 92.4444 24.2021 92.9358 24.4255C93.4272 24.6339 93.9633 24.7381 94.544 24.7381C94.9461 24.7381 95.2513 24.6786 95.4598 24.5595C95.6831 24.4403 95.7948 24.2766 95.7948 24.0681C95.7948 23.8002 95.6608 23.5992 95.3928 23.4652C95.1396 23.3163 94.812 23.1898 94.41 23.0855C94.0079 22.9664 93.5836 22.8399 93.1368 22.7059C92.6901 22.5719 92.2657 22.3858 91.8637 22.1476C91.4616 21.9094 91.134 21.5819 90.8809 21.165C90.6278 20.7333 90.5012 20.1899 90.5012 19.5348C90.5012 18.8351 90.6799 18.2321 91.0373 17.7259C91.3946 17.2048 91.9009 16.7954 92.5561 16.4977C93.2113 16.1999 93.9782 16.051 94.8567 16.051C95.7799 16.051 96.6287 16.2148 97.403 16.5423C98.1922 16.855 98.8325 17.3239 99.3239 17.9492L97.3807 19.9144C97.0382 19.5125 96.651 19.2296 96.2192 19.0658C95.8023 18.902 95.3928 18.8202 94.9907 18.8202C94.6036 18.8202 94.3132 18.8797 94.1196 18.9988C93.926 19.103 93.8293 19.2594 93.8293 19.4678C93.8293 19.6911 93.9558 19.8698 94.209 20.0038C94.4621 20.1377 94.7897 20.2568 95.1918 20.3611C95.5938 20.4653 96.0182 20.5918 96.4649 20.7407C96.9116 20.8896 97.336 21.0906 97.7381 21.3437C98.1401 21.5968 98.4677 21.9392 98.7208 22.3709C98.974 22.7878 99.1005 23.3386 99.1005 24.0235C99.1005 25.0805 98.6985 25.9217 97.8944 26.547C97.1052 27.1723 96.0331 27.4849 94.678 27.4849Z" fill="white"/>
<path d="M106.315 27.4626C105.139 27.4626 104.089 27.2244 103.166 26.748C102.258 26.2567 101.543 25.5793 101.022 24.7158C100.5 23.8523 100.24 22.8771 100.24 21.7903C100.24 20.7035 100.493 19.7358 100.999 18.8872C101.52 18.0237 102.22 17.3463 103.099 16.855C103.977 16.3637 104.968 16.118 106.07 16.118C107.142 16.118 108.087 16.3488 108.906 16.8103C109.725 17.2718 110.365 17.912 110.827 18.7308C111.304 19.5497 111.542 20.4876 111.542 21.5446C111.542 21.7382 111.527 21.9466 111.497 22.1699C111.482 22.3784 111.445 22.624 111.386 22.9069L102.027 22.9292V20.5844L109.934 20.562L108.459 21.5446C108.445 20.9194 108.348 20.4057 108.169 20.0038C107.99 19.5869 107.722 19.2742 107.365 19.0658C107.023 18.8425 106.598 18.7308 106.092 18.7308C105.556 18.7308 105.087 18.8574 104.685 19.1105C104.298 19.3487 103.992 19.6911 103.769 20.1377C103.56 20.5844 103.456 21.1278 103.456 21.768C103.456 22.4081 103.568 22.959 103.791 23.4205C104.03 23.8672 104.357 24.217 104.774 24.4701C105.206 24.7083 105.712 24.8274 106.293 24.8274C106.829 24.8274 107.313 24.7381 107.745 24.5595C108.177 24.3659 108.556 24.083 108.884 23.7108L110.76 25.5867C110.224 26.212 109.576 26.681 108.817 26.9936C108.057 27.3063 107.224 27.4626 106.315 27.4626Z" fill="white"/>
<path d="M118.552 27.4626C117.376 27.4626 116.326 27.2244 115.403 26.748C114.494 26.2567 113.78 25.5793 113.258 24.7158C112.737 23.8523 112.477 22.8771 112.477 21.7903C112.477 20.7035 112.73 19.7358 113.236 18.8872C113.757 18.0237 114.457 17.3463 115.336 16.855C116.214 16.3637 117.204 16.118 118.306 16.118C119.378 16.118 120.324 16.3488 121.143 16.8103C121.962 17.2718 122.602 17.912 123.064 18.7308C123.54 19.5497 123.779 20.4876 123.779 21.5446C123.779 21.7382 123.764 21.9466 123.734 22.1699C123.719 22.3784 123.682 22.624 123.622 22.9069L114.264 22.9292V20.5844L122.17 20.562L120.696 21.5446C120.681 20.9194 120.585 20.4057 120.406 20.0038C120.227 19.5869 119.959 19.2742 119.602 19.0658C119.259 18.8425 118.835 18.7308 118.329 18.7308C117.793 18.7308 117.324 18.8574 116.922 19.1105C116.534 19.3487 116.229 19.6911 116.006 20.1377C115.797 20.5844 115.693 21.1278 115.693 21.768C115.693 22.4081 115.805 22.959 116.028 23.4205C116.266 23.8672 116.594 24.217 117.011 24.4701C117.443 24.7083 117.949 24.8274 118.53 24.8274C119.066 24.8274 119.55 24.7381 119.982 24.5595C120.413 24.3659 120.793 24.083 121.121 23.7108L122.997 25.5867C122.461 26.212 121.813 26.681 121.054 26.9936C120.294 27.3063 119.46 27.4626 118.552 27.4626Z" fill="white"/>
<path d="M132.375 27.2169L128.578 21.5893L132.352 16.3637H136.172L131.615 22.2369L131.727 20.83L136.395 27.2169H132.375ZM125.428 27.2169V11.004H128.846V27.2169H125.428Z" fill="white"/>
<path d="M142.502 27.4626C141.326 27.4626 140.276 27.2244 139.353 26.748C138.444 26.2567 137.73 25.5793 137.209 24.7158C136.687 23.8523 136.427 22.8771 136.427 21.7903C136.427 20.7035 136.68 19.7358 137.186 18.8872C137.707 18.0237 138.407 17.3463 139.286 16.855C140.164 16.3637 141.155 16.118 142.256 16.118C143.329 16.118 144.274 16.3488 145.093 16.8103C145.912 17.2718 146.552 17.912 147.014 18.7308C147.491 19.5497 147.729 20.4876 147.729 21.5446C147.729 21.7382 147.714 21.9466 147.684 22.1699C147.669 22.3784 147.632 22.624 147.572 22.9069L138.214 22.9292V20.5844L146.121 20.562L144.646 21.5446C144.632 20.9194 144.535 20.4057 144.356 20.0038C144.177 19.5869 143.909 19.2742 143.552 19.0658C143.209 18.8425 142.785 18.7308 142.279 18.7308C141.743 18.7308 141.274 18.8574 140.872 19.1105C140.484 19.3487 140.179 19.6911 139.956 20.1377C139.747 20.5844 139.643 21.1278 139.643 21.768C139.643 22.4081 139.755 22.959 139.978 23.4205C140.216 23.8672 140.544 24.217 140.961 24.4701C141.393 24.7083 141.899 24.8274 142.48 24.8274C143.016 24.8274 143.5 24.7381 143.932 24.5595C144.363 24.3659 144.743 24.083 145.071 23.7108L146.947 25.5867C146.411 26.212 145.763 26.681 145.004 26.9936C144.244 27.3063 143.41 27.4626 142.502 27.4626Z" fill="white"/>
<path d="M149.378 27.2169V16.3637H152.796V27.2169H149.378ZM152.796 21.2543L151.366 20.1377C151.649 18.8723 152.126 17.8897 152.796 17.1899C153.466 16.4902 154.396 16.1403 155.588 16.1403C156.109 16.1403 156.563 16.2222 156.95 16.386C157.352 16.5349 157.702 16.7731 158 17.1006L155.967 19.6688C155.819 19.505 155.632 19.3785 155.409 19.2891C155.186 19.1998 154.933 19.1551 154.65 19.1551C154.084 19.1551 153.63 19.3338 153.287 19.6911C152.96 20.0335 152.796 20.5546 152.796 21.2543Z" fill="white"/>
</svg>
