<svg width="506" height="128" viewBox="0 0 506 128" fill="none" xmlns="http://www.w3.org/2000/svg">
<path d="M85.4862 116.554C77.9702 119.868 69.6571 121.709 60.9137 121.709C27.272 121.709 0 94.4632 0 60.8543C0 27.2454 27.272 0 60.9137 0C94.5554 0 121.827 27.2454 121.827 60.8543C121.827 70.3833 119.635 79.4008 115.727 87.4308L104.786 77.3156C101.424 74.207 97.316 72.4084 93.0912 71.8955C94.3298 68.3511 95.003 64.5416 95.003 60.5751C95.003 41.6123 79.6156 26.2399 60.6343 26.2399C41.6529 26.2399 26.2655 41.6123 26.2655 60.5751C26.2655 79.538 41.6529 94.9104 60.6343 94.9104C63.7369 94.9104 66.7435 94.4996 69.6025 93.7297C69.8648 99.0073 72.1139 104.19 76.3025 108.063L85.4862 116.554Z" fill="#181818"/>
<path d="M84.7398 86.0709C89.6762 81.1914 97.6375 81.2336 102.522 86.1652L136.76 120.736C126.888 130.495 110.965 130.41 101.196 120.547L83.7147 102.896C79.3444 98.4832 79.3822 91.3667 83.7992 87.0007L84.7398 86.0709Z" fill="#181818"/>
<path d="M95.5619 51.6424C95.5619 62.2801 86.9299 70.9036 76.2818 70.9036C65.6338 70.9036 57.0018 62.2801 57.0018 51.6424C57.0018 41.0047 65.6338 32.3812 76.2818 32.3812C86.9299 32.3812 95.5619 41.0047 95.5619 51.6424Z" fill="#181818"/>
<path d="M147.288 87.8803C144.093 87.8803 141.256 87.2371 138.776 85.9508C136.344 84.6169 134.436 82.8065 133.053 80.5197C131.67 78.1853 130.979 75.5174 130.979 72.516V52.3637H141.923V72.3731C141.923 73.5641 142.114 74.5884 142.496 75.4459C142.925 76.3035 143.545 76.9704 144.355 77.4468C145.166 77.9233 146.144 78.1615 147.288 78.1615C148.91 78.1615 150.197 77.6612 151.151 76.6608C152.105 75.6127 152.582 74.1834 152.582 72.3731V52.3637H163.526V72.4445C163.526 75.4936 162.834 78.1853 161.451 80.5197C160.069 82.8065 158.161 84.6169 155.729 85.9508C153.297 87.2371 150.483 87.8803 147.288 87.8803Z" fill="#181818"/>
<path d="M187.565 87.8803C183.798 87.8803 180.436 87.118 177.479 85.5935C174.57 84.0213 172.281 81.8537 170.612 79.0905C168.943 76.3273 168.108 73.2068 168.108 69.729C168.108 66.2511 168.919 63.1545 170.54 60.4389C172.21 57.6757 174.451 55.508 177.264 53.9359C180.078 52.3637 183.249 51.5776 186.778 51.5776C190.212 51.5776 193.24 52.3161 195.863 53.793C198.486 55.2698 200.536 57.3184 202.014 59.9387C203.54 62.559 204.303 65.5603 204.303 68.9429C204.303 69.5622 204.256 70.2292 204.16 70.9438C204.113 71.6108 203.993 72.3969 203.803 73.3021L173.831 73.3735V65.87L199.153 65.7986L194.432 68.9429C194.384 66.9419 194.074 65.2983 193.502 64.012C192.93 62.6781 192.071 61.6776 190.927 61.0106C189.83 60.296 188.471 59.9387 186.85 59.9387C185.133 59.9387 183.631 60.3436 182.343 61.1535C181.103 61.9158 180.126 63.0115 179.41 64.4408C178.743 65.87 178.409 67.6089 178.409 69.6575C178.409 71.7061 178.767 73.4688 179.482 74.9457C180.245 76.3749 181.294 77.4945 182.629 78.3044C184.012 79.0667 185.634 79.4478 187.493 79.4478C189.21 79.4478 190.76 79.1619 192.143 78.5902C193.526 77.9709 194.742 77.0657 195.791 75.8747L201.8 81.8775C200.083 83.8784 198.009 85.3791 195.577 86.3796C193.144 87.3801 190.474 87.8803 187.565 87.8803Z" fill="#181818"/>
<path d="M222.247 87.9517C220.197 87.9517 218.17 87.6897 216.167 87.1657C214.212 86.6416 212.376 85.9032 210.659 84.9503C208.99 83.9499 207.559 82.8065 206.367 81.5202L212.59 75.2315C213.735 76.4702 215.094 77.4469 216.668 78.1615C218.241 78.8284 219.958 79.1619 221.818 79.1619C223.106 79.1619 224.083 78.9714 224.751 78.5902C225.466 78.2091 225.824 77.6851 225.824 77.0181C225.824 76.1605 225.395 75.5174 224.536 75.0886C223.726 74.6122 222.676 74.2072 221.389 73.8738C220.101 73.4926 218.742 73.0877 217.312 72.6589C215.881 72.2301 214.522 71.6346 213.234 70.8724C211.947 70.1101 210.898 69.062 210.087 67.728C209.276 66.3464 208.871 64.6075 208.871 62.5113C208.871 60.2722 209.443 58.3427 210.588 56.7229C211.732 55.0555 213.353 53.7453 215.452 52.7925C217.55 51.8397 220.006 51.3633 222.82 51.3633C225.776 51.3633 228.494 51.8873 230.974 52.9354C233.502 53.9359 235.552 55.4366 237.126 57.4375L230.903 63.7262C229.806 62.4398 228.566 61.5347 227.183 61.0106C225.848 60.4866 224.536 60.2245 223.249 60.2245C222.009 60.2245 221.079 60.4151 220.459 60.7962C219.839 61.1297 219.529 61.6299 219.529 62.2969C219.529 63.0115 219.934 63.5832 220.745 64.012C221.556 64.4408 222.605 64.8219 223.892 65.1554C225.18 65.4889 226.539 65.8938 227.97 66.3703C229.4 66.8467 230.76 67.4898 232.047 68.2997C233.335 69.1096 234.384 70.2054 235.194 71.587C236.005 72.9209 236.411 74.6837 236.411 76.8752C236.411 80.2577 235.123 82.9494 232.548 84.9503C230.02 86.9513 226.587 87.9517 222.247 87.9517Z" fill="#181818"/>
<path d="M247.284 87.0942V37.9999H258.228V87.0942H247.284ZM239.415 61.6538V52.3637H266.097V61.6538H239.415Z" fill="#181818"/>
<path d="M303.209 87.9517C301.159 87.9517 299.132 87.6897 297.129 87.1657C295.174 86.6416 293.338 85.9032 291.621 84.9503C289.952 83.9499 288.522 82.8065 287.329 81.5202L293.553 75.2315C294.697 76.4702 296.056 77.4469 297.63 78.1615C299.204 78.8284 300.92 79.1619 302.78 79.1619C304.068 79.1619 305.045 78.9714 305.713 78.5902C306.428 78.2091 306.786 77.6851 306.786 77.0181C306.786 76.1605 306.357 75.5174 305.498 75.0886C304.688 74.6122 303.639 74.2072 302.351 73.8738C301.063 73.4926 299.704 73.0877 298.274 72.6589C296.843 72.2301 295.484 71.6346 294.196 70.8724C292.909 70.1101 291.86 69.062 291.049 67.728C290.238 66.3464 289.833 64.6075 289.833 62.5113C289.833 60.2722 290.405 58.3427 291.55 56.7229C292.694 55.0555 294.316 53.7453 296.414 52.7925C298.512 51.8397 300.968 51.3633 303.782 51.3633C306.738 51.3633 309.456 51.8873 311.936 52.9354C314.464 53.9359 316.514 55.4366 318.088 57.4375L311.865 63.7262C310.768 62.4398 309.528 61.5347 308.145 61.0106C306.81 60.4866 305.498 60.2245 304.211 60.2245C302.971 60.2245 302.041 60.4151 301.421 60.7962C300.801 61.1297 300.491 61.6299 300.491 62.2969C300.491 63.0115 300.897 63.5832 301.707 64.012C302.518 64.4408 303.567 64.8219 304.855 65.1554C306.142 65.4889 307.501 65.8938 308.932 66.3703C310.363 66.8467 311.722 67.4898 313.009 68.2997C314.297 69.1096 315.346 70.2054 316.157 71.587C316.967 72.9209 317.373 74.6837 317.373 76.8752C317.373 80.2577 316.085 82.9494 313.51 84.9503C310.982 86.9513 307.549 87.9517 303.209 87.9517Z" fill="#181818"/>
<path d="M340.478 87.8803C336.711 87.8803 333.349 87.118 330.392 85.5935C327.483 84.0213 325.194 81.8537 323.525 79.0905C321.856 76.3273 321.021 73.2068 321.021 69.729C321.021 66.2511 321.832 63.1545 323.453 60.4389C325.122 57.6757 327.364 55.508 330.177 53.9359C332.991 52.3637 336.162 51.5776 339.691 51.5776C343.125 51.5776 346.153 52.3161 348.776 53.793C351.398 55.2698 353.449 57.3184 354.927 59.9387C356.453 62.559 357.216 65.5603 357.216 68.9429C357.216 69.5622 357.169 70.2292 357.073 70.9438C357.026 71.6108 356.906 72.3969 356.716 73.3021L326.744 73.3735V65.87L352.066 65.7986L347.345 68.9429C347.297 66.9419 346.987 65.2983 346.415 64.012C345.843 62.6781 344.984 61.6776 343.84 61.0106C342.743 60.296 341.384 59.9387 339.763 59.9387C338.046 59.9387 336.544 60.3436 335.256 61.1535C334.016 61.9158 333.039 63.0115 332.323 64.4408C331.656 65.87 331.322 67.6089 331.322 69.6575C331.322 71.7061 331.68 73.4688 332.395 74.9457C333.158 76.3749 334.207 77.4945 335.542 78.3044C336.925 79.0667 338.547 79.4478 340.406 79.4478C342.123 79.4478 343.673 79.1619 345.056 78.5902C346.439 77.9709 347.655 77.0657 348.704 75.8747L354.713 81.8775C352.996 83.8784 350.922 85.3791 348.49 86.3796C346.057 87.3801 343.387 87.8803 340.478 87.8803Z" fill="#181818"/>
<path d="M379.667 87.8803C375.899 87.8803 372.537 87.118 369.581 85.5935C366.672 84.0213 364.383 81.8537 362.714 79.0905C361.045 76.3273 360.21 73.2068 360.21 69.729C360.21 66.2511 361.021 63.1545 362.642 60.4389C364.311 57.6757 366.553 55.508 369.366 53.9359C372.18 52.3637 375.351 51.5776 378.88 51.5776C382.313 51.5776 385.341 52.3161 387.964 53.793C390.587 55.2698 392.638 57.3184 394.116 59.9387C395.642 62.559 396.405 65.5603 396.405 68.9429C396.405 69.5622 396.357 70.2292 396.262 70.9438C396.214 71.6108 396.095 72.3969 395.904 73.3021L365.933 73.3735V65.87L391.255 65.7986L386.534 68.9429C386.486 66.9419 386.176 65.2983 385.604 64.012C385.032 62.6781 384.173 61.6776 383.029 61.0106C381.932 60.296 380.573 59.9387 378.951 59.9387C377.235 59.9387 375.732 60.3436 374.445 61.1535C373.205 61.9158 372.227 63.0115 371.512 64.4408C370.844 65.87 370.511 67.6089 370.511 69.6575C370.511 71.7061 370.868 73.4688 371.584 74.9457C372.347 76.3749 373.396 77.4945 374.731 78.3044C376.114 79.0667 377.735 79.4478 379.595 79.4478C381.312 79.4478 382.862 79.1619 384.245 78.5902C385.628 77.9709 386.844 77.0657 387.893 75.8747L393.901 81.8775C392.185 83.8784 390.11 85.3791 387.678 86.3796C385.246 87.3801 382.576 87.8803 379.667 87.8803Z" fill="#181818"/>
<path d="M423.934 87.0942L411.774 69.0858L423.863 52.3637H436.095L421.502 71.1582L421.86 66.6561L436.81 87.0942H423.934ZM401.688 87.0942V35.2129H412.632V87.0942H401.688Z" fill="#181818"/>
<path d="M456.368 87.8803C452.6 87.8803 449.238 87.118 446.282 85.5935C443.373 84.0213 441.084 81.8537 439.415 79.0905C437.746 76.3273 436.911 73.2068 436.911 69.729C436.911 66.2511 437.722 63.1545 439.343 60.4389C441.012 57.6757 443.254 55.508 446.067 53.9359C448.881 52.3637 452.052 51.5776 455.581 51.5776C459.014 51.5776 462.042 52.3161 464.665 53.793C467.288 55.2698 469.339 57.3184 470.817 59.9387C472.343 62.559 473.106 65.5603 473.106 68.9429C473.106 69.5622 473.058 70.2292 472.963 70.9438C472.915 71.6108 472.796 72.3969 472.605 73.3021L442.634 73.3735V65.87L467.956 65.7986L463.235 68.9429C463.187 66.9419 462.877 65.2983 462.305 64.012C461.732 62.6781 460.874 61.6776 459.73 61.0106C458.633 60.296 457.274 59.9387 455.652 59.9387C453.936 59.9387 452.433 60.3436 451.146 61.1535C449.906 61.9158 448.928 63.0115 448.213 64.4408C447.545 65.87 447.212 67.6089 447.212 69.6575C447.212 71.7061 447.569 73.4688 448.285 74.9457C449.048 76.3749 450.097 77.4945 451.432 78.3044C452.815 79.0667 454.436 79.4478 456.296 79.4478C458.013 79.4478 459.563 79.1619 460.946 78.5902C462.329 77.9709 463.545 77.0657 464.594 75.8747L470.602 81.8775C468.886 83.8784 466.811 85.3791 464.379 86.3796C461.947 87.3801 459.277 87.8803 456.368 87.8803Z" fill="#181818"/>
<path d="M478.389 87.0942V52.3637H489.333V87.0942H478.389ZM489.333 68.0139L484.755 64.4408C485.661 60.3913 487.187 57.2469 489.333 55.0078C491.479 52.7687 494.46 51.6491 498.275 51.6491C499.944 51.6491 501.398 51.9111 502.638 52.4352C503.926 52.9116 505.046 53.6739 506 54.722L499.491 62.9401C499.014 62.416 498.418 62.0111 497.702 61.7252C496.987 61.4394 496.176 61.2965 495.27 61.2965C493.458 61.2965 492.004 61.8682 490.907 63.0115C489.858 64.1073 489.333 65.7747 489.333 68.0139Z" fill="#181818"/>
</svg>
