<svg width="247" height="221" viewBox="0 0 247 221" fill="none" xmlns="http://www.w3.org/2000/svg">
<path d="M65.3165 6.87959L66.1483 7.18205L66.9315 6.76984L75.855 2.07325L95.7104 4.97892L95.8544 5H96H173.076L177.188 6.82762L178.194 7.27466L179.109 6.6641L181.606 5H240.455L243 14.7566V82.7804L240.048 96.0661L239.927 96.6069L240.103 97.1325L243 105.825V196.5V196.68L243.032 196.858L244.969 207.508L243.318 217H161H160.811L160.626 217.035L150.96 218.876L143.153 213.366L142.339 212.791L141.39 213.095L129.188 217H40.5H22.5661L16.5482 213.297L15.7978 212.835L14.9506 213.077L8.79778 214.835L4 211.882V142V141.969L3.99902 141.938L2.50364 94.0851L5.98653 64.2318L6.05566 63.6392L5.78885 63.1056L4 59.5279V8.9848L9.18024 5H60.1476L65.3165 6.87959Z" fill="white" stroke="black" stroke-width="4"/>
</svg>
